<svg xmlns="http://www.w3.org/2000/svg" fill="none" viewBox="0 0 24 24" id="Airflow--Streamline-Svg-Logos" height="24" width="24">
  <desc>
    Airflow Streamline Icon: https://streamlinehq.com
  </desc>
  <path fill="#017cee" d="m0.3944225 16.443925 4.2895525 -4.397c0.027325 -0.027 0.031375 -0.0697 0.0096 -0.10135 -0.26085 -0.364175 -0.7422 -0.427325 -0.92055 -0.672025 -0.528375 -0.72485 -0.66245 -1.135125 -0.8895 -1.109725 -0.01585 0.0023 -0.030425 0.009975 -0.04125 0.021775l-1.5495225 1.588475C0.40127 12.687175 0.2731325 14.699775 0.25 16.3852c-0.00015225 0.0343 0.020575 0.06525 0.052355 0.078175 0.03178 0.012925 0.06823 0.005225 0.0920675 -0.01945Z" stroke-width="0.25"></path>
  <path fill="#00ad46" d="m9.17345 16.33545 -4.397 -4.28985c-0.027025 -0.027425 -0.069825 -0.03145 -0.1015 -0.0096 -0.364175 0.261 -0.427325 0.7422 -0.672025 0.92055 -0.72485 0.528375 -1.135125 0.66245 -1.109725 0.889525 0.002325 0.015775 0.01 0.0303 0.021775 0.041075l1.588475 1.549525c0.913075 0.891475 2.9257 1.019625 4.6111 1.04275 0.03415 0 0.0649 -0.0206 0.077825 -0.0522 0.012925 -0.0316 0.00545 -0.06785 -0.018925 -0.091775Z" stroke-width="0.25"></path>
  <path fill="#04d659" d="M4.5034 15.4371c-0.49915 -0.487 -0.730475 -1.4503 0.22615 -3.436725 -1.55515 0.695 -2.1001 1.60855 -1.832125 1.87015l1.605975 1.566575Z" stroke-width="0.25"></path>
  <path fill="#00c7d4" d="m9.064725 7.556575 -4.2894 4.397c-0.0274 0.026975 -0.03145 0.069725 -0.0096 0.10135 0.261 0.364175 0.74205 0.427325 0.92055 0.67205 0.528375 0.724825 0.6626 1.135125 0.8895 1.1097 0.015875 -0.00225 0.03045 -0.00995 0.04125 -0.02175l1.549525 -1.588475c0.891475 -0.9131 1.019625 -2.9257 1.04275 -4.611125 0.00005 -0.0343 -0.0207 -0.065225 -0.052475 -0.078125 -0.031775 -0.012925 -0.068225 -0.00525 -0.0921 0.019375Z" stroke-width="0.25"></path>
  <path fill="#11e1ee" d="M8.16735 12.2265c-0.486975 0.499175 -1.4503 0.730475 -3.436875 -0.226125 0.695 1.55515 1.60855 2.1001 1.87015 1.8321l1.566725 -1.605975Z" stroke-width="0.25"></path>
  <path fill="#e43921" d="M0.2855675 7.665075 4.682575 11.9545c0.027 0.027325 0.0697 0.03135 0.10135 0.009575 0.364175 -0.261 0.427325 -0.7422 0.672025 -0.92055 0.72485 -0.528375 1.135125 -0.66245 1.109725 -0.8895 -0.002325 -0.015825 -0.01 -0.0304 -0.021775 -0.04125l-1.588475 -1.5495c-0.9131 -0.8915 -2.9257 -1.019625 -4.6111175 -1.042775 -0.0343775 -0.0002 -0.06542 0.02055 -0.07836 0.0524 -0.0129425 0.03185 -0.00517 0.068375 0.01962 0.092175Z" stroke-width="0.25"></path>
  <path fill="#ff7557" d="M4.956375 8.56335c0.49915 0.486975 0.730475 1.4503 -0.22615 3.436875 1.55515 -0.695 2.100125 -1.6087 1.832125 -1.87015l-1.605975 -1.566725Z" stroke-width="0.25"></path>
  <path fill="#0cb6ff" d="M1.292725 11.77415c0.4869825 -0.49915 1.4503 -0.73045 3.436875 0.22615 -0.695 -1.55515 -1.60855 -2.1001 -1.87015 -1.832125l-1.566725 1.605975Z" stroke-width="0.25"></path>
  <path fill="#4a4848" d="M4.7302 12.19125c0.1059 0 0.19175 -0.08585 0.19175 -0.19175 0 -0.1059 -0.08585 -0.19175 -0.19175 -0.19175 -0.1059 0 -0.19175 0.08585 -0.19175 0.19175 0 0.1059 0.08585 0.19175 0.19175 0.19175Z" stroke-width="0.25"></path>
  <path fill="#51504f" d="M10.40425 10.442975c-0.01855 -0.000475 -0.03345 -0.0154 -0.033925 -0.03395 -0.0003 -0.006275 0.00025 -0.012575 0.001675 -0.0187l0.420925 -1.09785c0.007125 -0.023625 0.029725 -0.039125 0.054325 -0.0373h0.11535c0.024575 -0.0017 0.0471 0.01375 0.054325 0.0373l0.419125 1.09785 0.00335 0.0187c-0.0004 0.018575 -0.015375 0.03355 -0.03395 0.03395h-0.086425c-0.01035 0.00065 -0.0206 -0.00235 -0.028925 -0.008525 -0.006025 -0.005675 -0.01065 -0.01265 -0.01355 -0.0204l-0.093275 -0.2409H10.62675l-0.0933 0.2409c-0.00315 0.00805 -0.0084 0.015075 -0.015225 0.0204 -0.007725 0.005975 -0.017325 0.009 -0.027075 0.008525h-0.0869Zm0.729725 -0.415775 -0.22905 -0.602325 -0.229025 0.602325h0.458075Zm0.50555 0.7381c-0.010825 0.000175 -0.021225 -0.004125 -0.028775 -0.011875 -0.006975 -0.00725 -0.01065 -0.01705 -0.0102 -0.0271v-1.12615c-0.00045 -0.010025 0.003225 -0.019825 0.0102 -0.027075 0.00755 -0.00775 0.01795 -0.01205 0.028775 -0.011875h0.07805c0.021125 0.000925 0.03805 0.017825 0.038975 0.03895v0.074575c0.064675 -0.087775 0.169325 -0.1369 0.278175 -0.130575 0.101625 -0.00745 0.2007 0.034175 0.266475 0.112 0.063025 0.0832 0.097025 0.184775 0.0968 0.28915 0.0011 0.012375 0.001675 0.0316 0.001675 0.057675 0 0.026075 -0.000575 0.0453 -0.001675 0.057675 -0.00015 0.104325 -0.0341 0.205775 -0.0968 0.28915 -0.06605 0.07745 -0.164925 0.119 -0.266475 0.112025 -0.106875 0.004975 -0.209475 -0.0425 -0.274825 -0.127225v0.393675c0.00045 0.01005 -0.00325 0.01985 -0.0102 0.0271 -0.006775 0.007925 -0.016825 0.0123 -0.02725 0.011875l-0.082925 -0.001975Zm0.35975 -0.44285c0.0671 0.005875 0.132725 -0.02215 0.17485 -0.074725 0.039875 -0.057875 0.0611 -0.126525 0.060875 -0.196775 0.001125 -0.011275 0.001675 -0.02765 0.001675 -0.04915 0 -0.213775 -0.079225 -0.32065 -0.2377 -0.32065 -0.06805 -0.0045 -0.133975 0.024675 -0.1764 0.078075 -0.039125 0.053 -0.061 0.11675 -0.062675 0.1826l-0.00185 0.064525 0.00185 0.0662c0.001175 0.0639 0.0239 0.125525 0.064525 0.174875 0.043225 0.051025 0.1079 0.078825 0.1747 0.075025h0.00015Zm0.856475 0.13695c-0.053375 0.000475 -0.106175 -0.011125 -0.154475 -0.033925 -0.044925 -0.02045 -0.084 -0.05185 -0.113675 -0.091325 -0.02675 -0.0383 -0.041 -0.083975 -0.040775 -0.130725 -0.001025 -0.072075 0.033025 -0.140175 0.0913 -0.1826 0.0739 -0.0532 0.1605 -0.08595 0.2511 -0.094975l0.252775 -0.0356v-0.049175c0 -0.11535 -0.06595 -0.173025 -0.197825 -0.173025 -0.0429 -0.00175 -0.08535 0.0095 -0.12175 0.032275 -0.0294 0.0181 -0.053875 0.0432 -0.071225 0.07305 -0.002325 0.008475 -0.007025 0.016125 -0.01355 0.02205 -0.005575 0.004975 -0.012925 0.00745 -0.020375 0.00685h-0.07305c-0.0101 0.0007 -0.019975 -0.003025 -0.027125 -0.010175 -0.00715 -0.007125 -0.01085 -0.017025 -0.010175 -0.0271 0.0036 -0.03335 0.016525 -0.065 0.0373 -0.091325 0.029775 -0.039 0.068875 -0.0699 0.113675 -0.089925 0.058825 -0.027725 0.1234 -0.041075 0.1884 -0.03895 0.099875 -0.009775 0.199275 0.02285 0.273925 0.089925 0.0558 0.059675 0.08575 0.139 0.08325 0.220675v0.549825c0.000225 0.010875 -0.004075 0.02135 -0.011875 0.028925 -0.00725 0.006975 -0.01705 0.010675 -0.027075 0.010175h-0.078075c-0.010675 0.001175 -0.021275 -0.00255 -0.028875 -0.010125 -0.0076 -0.00755 -0.011375 -0.01815 -0.01025 -0.028825v-0.0729c-0.028175 0.0389 -0.065475 0.07025 -0.10865 0.091325 -0.0572 0.026675 -0.120025 0.039075 -0.183075 0.03605l0.00015 -0.00045Zm0.0356 -0.127225c0.067325 0.002475 0.132575 -0.023425 0.1799 -0.071375 0.050625 -0.05725 0.076275 -0.132375 0.071225 -0.208625v-0.0475l-0.196775 0.028925c-0.063975 0.005875 -0.125925 0.02555 -0.18155 0.057675 -0.03695 0.0199 -0.060225 0.0582 -0.060875 0.100125 -0.001425 0.04255 0.0199 0.0826 0.056 0.105175 0.039575 0.0245 0.0854 0.037025 0.131925 0.03605l0.00015 -0.00045Zm1.01095 0.127225c-0.10485 0.00595 -0.20765 -0.030775 -0.285025 -0.1018 -0.071925 -0.0789 -0.110825 -0.1824 -0.10865 -0.28915l-0.001675 -0.067875 0.001675 -0.067875c-0.002175 -0.10605 0.03675 -0.20885 0.10865 -0.28685 0.07685 -0.072025 0.179875 -0.109425 0.285025 -0.1035 0.07155 -0.002175 0.14255 0.01295 0.206975 0.044125 0.050775 0.0244 0.094125 0.0619 0.12555 0.108675 0.026525 0.038125 0.0423 0.0827 0.04565 0.12905 0.0014 0.010175 -0.00245 0.02035 -0.0102 0.027075 -0.008025 0.006875 -0.01835 0.0105 -0.0289 0.0102h-0.081425c-0.00905 0.000675 -0.01805 -0.00175 -0.025575 -0.00685 -0.00765 -0.0076 -0.013425 -0.016875 -0.016875 -0.027075 -0.01355 -0.04645 -0.0422 -0.08705 -0.081425 -0.11535 -0.0395 -0.025025 -0.085675 -0.03745 -0.1324 -0.035625 -0.062675 -0.002725 -0.12355 0.02135 -0.1674 0.0662 -0.04525 0.055775 -0.068775 0.12605 -0.0662 0.19785l-0.001675 0.06085 0.001675 0.0577c-0.002925 0.072575 0.0206 0.143725 0.0662 0.20025 0.0441 0.044325 0.104975 0.067775 0.1674 0.064525 0.0465 0.001775 0.0925 -0.010025 0.1324 -0.033925 0.039 -0.029275 0.06755 -0.0703 0.081425 -0.117025 0.00345 -0.010225 0.009225 -0.0195 0.016875 -0.0271 0.007025 -0.00615 0.01625 -0.009225 0.025575 -0.008525h0.081425c0.01085 -0.0002 0.021325 0.0041 0.0289 0.011875 0.00775 0.00675 0.0116 0.016925 0.0102 0.0271 -0.003725 0.0462 -0.019475 0.090625 -0.04565 0.1289 -0.031425 0.04675 -0.074775 0.08425 -0.12555 0.10865 -0.064225 0.032075 -0.13535 0.04785 -0.207125 0.04595l0.00015 -0.00045Zm0.6206 -0.01705c-0.01065 0.001175 -0.021275 -0.00255 -0.028875 -0.010125 -0.007575 -0.00755 -0.01135 -0.01815 -0.010225 -0.028825V9.27725c-0.00045 -0.01005 0.003225 -0.019825 0.0102 -0.027075 0.007575 -0.007775 0.01805 -0.012075 0.0289 -0.0119h0.084775c0.0212 0.0008 0.03825 0.017775 0.0391 0.038975v0.395675c0.0307 -0.04005 0.07015 -0.07255 0.115375 -0.09495 0.0514 -0.024225 0.10785 -0.035875 0.16465 -0.03395 0.0959 -0.005375 0.189 0.03335 0.252775 0.10515 0.06395 0.077575 0.096525 0.176275 0.0913 0.276675v0.478475c0.00025 0.01085 -0.00405 0.021325 -0.011875 0.0289 -0.007225 0.006975 -0.017025 0.010675 -0.027075 0.0102h-0.084775c-0.010625 0.001125 -0.0212 -0.002625 -0.02875 -0.0102 -0.007575 -0.00755 -0.011325 -0.018125 -0.0102 -0.02875v-0.47085c0.004275 -0.0675 -0.0169 -0.134125 -0.05935 -0.18675 -0.043125 -0.045925 -0.104525 -0.070225 -0.1674 -0.0662 -0.064175 -0.002825 -0.126525 0.021875 -0.17135 0.067875 -0.04425 0.0511 -0.06675 0.11745 -0.0627 0.1849v0.46995c0.000225 0.010875 -0.004075 0.02135 -0.011875 0.028925 -0.00725 0.006975 -0.01705 0.010675 -0.0271 0.010175l-0.085525 -0.00015Zm1.3462 0.01705c-0.104075 0.0049 -0.2055 -0.033675 -0.28 -0.106525 -0.0726 -0.081275 -0.113025 -0.18625 -0.113675 -0.295225l-0.001675 -0.057675 0.001675 -0.056025c0.002125 -0.107975 0.043075 -0.2116 0.11535 -0.291875 0.162075 -0.1489 0.412675 -0.143675 0.5684 0.011875 0.073025 0.091075 0.109875 0.2059 0.103475 0.322475v0.0289c0.0002 0.010825 -0.0041 0.02125 -0.011875 0.028775 -0.00725 0.006975 -0.017025 0.01065 -0.027075 0.0102h-0.587125v0.015225c0.001475 0.068225 0.024675 0.134225 0.0662 0.1884 0.0398 0.049825 0.10075 0.078 0.1645 0.076075 0.044425 0.00195 0.0885 -0.0086 0.127225 -0.030425 0.028975 -0.017 0.05435 -0.0395 0.074725 -0.0662 0.005875 -0.009175 0.01335 -0.0172 0.022075 -0.02375 0.009075 -0.00405 0.019 -0.005775 0.0289 -0.005025h0.08325c0.009225 -0.0003 0.01825 0.002725 0.025425 0.008525 0.0069 0.0059 0.010675 0.014675 0.0102 0.02375 -0.00475 0.034625 -0.02155 0.066475 -0.0475 0.089925 -0.03665 0.0393 -0.0812 0.070425 -0.130725 0.091325 -0.0605 0.02605 -0.125875 0.0389 -0.19175 0.037725v-0.00045Zm0.2324 -0.5226v-0.005c0.00305 -0.069225 -0.019975 -0.13705 -0.064525 -0.1901 -0.0436 -0.047575 -0.10515 -0.074675 -0.1697 -0.074675 -0.064525 0 -0.126075 0.0271 -0.169675 0.074675 -0.0424 0.054025 -0.064025 0.121475 -0.060875 0.1901v0.005h0.464775Z" stroke-width="0.25"></path>
  <path fill="#51504f" d="M11.133375 10.027175v0.0131c0.004275 -0.000025 0.00825 -0.00215 0.010675 -0.005675 0.002425 -0.0035 0.002975 -0.007975 0.0015 -0.011975l-0.012175 0.00455Zm-0.22905 -0.602325 0.012175 -0.004575c-0.001975 -0.005 -0.0068 -0.008275 -0.012175 -0.008275 -0.005375 0 -0.0102 0.003275 -0.012175 0.008275l0.012175 0.004575Zm-0.229025 0.602325 -0.012175 -0.00455c-0.0015 0.004 -0.000925 0.008475 0.0015 0.011975 0.002425 0.003525 0.0064 0.00565 0.010675 0.005675v-0.0131Zm-0.2715 0.402675c-0.00575 0.000225 -0.011325 -0.0021 -0.0152 -0.006375l-0.018575 0.0184c0.008625 0.008975 0.020575 0.014025 0.033025 0.014l0.00075 -0.026025Zm-0.0152 -0.006375c-0.004275 -0.0039 -0.0066 -0.009475 -0.0064 -0.015225h-0.026025c-0.000025 0.01245 0.005025 0.024375 0.014 0.033025l0.018425 -0.0178Zm-0.0064 -0.015225c-0.000325 -0.0051 0.00005 -0.010225 0.001075 -0.015225l-0.024825 -0.008225c-0.001925 0.00745 -0.00275 0.01515 -0.002425 0.022825l0.026175 0.000625Zm0.00075 -0.014 0.4208 -1.09785 -0.02435 -0.009275 -0.4208 1.097825 0.02435 0.0093Zm0.42095 -1.09815c0.00265 -0.008675 0.007975 -0.0163 0.015225 -0.021775 0.0079 -0.004975 0.017125 -0.007425 0.026475 -0.007v-0.026175c-0.014625 -0.00045 -0.029 0.0036 -0.04125 0.011575 -0.01185 0.0085 -0.0207 0.02055 -0.02525 0.0344l0.0248 0.008975Zm0.042 -0.028775h0.11535v-0.026175h-0.11535v0.026175Zm0.11535 0c0.009375 -0.00045 0.0187 0.002 0.026625 0.007 0.00725 0.005475 0.012575 0.0131 0.015225 0.021775l0.0245 -0.008975c-0.00455 -0.013875 -0.0134 -0.0259 -0.02525 -0.0344 -0.0123 -0.008 -0.02675 -0.01205 -0.0414 -0.011575l0.0003 0.026175Zm0.04215 0.028925 0.419125 1.09785 0.02435 -0.0093 -0.419125 -1.097825 -0.02435 0.009275Zm0.4185 1.0957 0.00335 0.018725 0.025725 -0.004725 -0.00335 -0.0187 -0.025725 0.0047Zm0.0032 0.0163c0.0002 0.00575 -0.00215 0.011325 -0.0064 0.015225l0.018425 0.0184c0.008975 -0.008625 0.014025 -0.020575 0.014 -0.033025l-0.026025 -0.0006Zm-0.0064 0.015225c-0.0039 0.004225 -0.00945 0.006575 -0.0152 0.006375v0.026025c0.01245 0.000025 0.024375 -0.005025 0.033025 -0.014l-0.017825 -0.0184Zm-0.0152 0.006375h-0.08645v0.026025h0.08645v-0.026025Zm-0.08645 0c-0.007275 0.000625 -0.01455 -0.0013 -0.02055 -0.005475l-0.016725 0.0201c0.010675 0.008125 0.023875 0.012225 0.037275 0.01155v-0.026175Zm-0.019625 -0.004725c-0.00465 -0.004175 -0.00825 -0.009375 -0.0105 -0.0152l-0.02465 0.0082c0.0035 0.009675 0.009225 0.018375 0.016725 0.025425l0.018425 -0.018425Zm-0.01065 -0.0152 -0.0933 -0.241075 -0.02435 0.00945 0.0933 0.2409 0.02435 -0.009275Zm-0.105475 -0.249275h-0.556525v0.026025h0.556525v-0.026025Zm-0.5687 0.008375 -0.09345 0.24105 0.02435 0.009425 0.0933 -0.2409 -0.0242 -0.009575Zm-0.0936 0.2415c-0.00235 0.006025 -0.0063 0.011275 -0.0114 0.015225l0.0169 0.019775c0.008625 -0.006825 0.01525 -0.015875 0.019175 -0.026175l-0.024675 -0.008825Zm-0.01125 0.015225c-0.005425 0.004025 -0.012125 0.005975 -0.018875 0.005475v0.026025c0.012825 0.000475 0.0254 -0.003625 0.03545 -0.011575l-0.016575 -0.019925Zm-0.018875 0.005475h-0.0866v0.026025h0.0866v-0.026025Zm0.6553 -0.4074 -0.229025 -0.602325 -0.02435 0.009275 0.229025 0.60235 0.02435 -0.0093Zm-0.253525 -0.602325 -0.22905 0.602325 0.02435 0.0093 0.22905 -0.60235 -0.02435 -0.009275Zm-0.216875 0.62015h0.458075v-0.026025h-0.458075v0.026025Zm1.0808 -0.366h-0.013075c0 0.005625 0.003625 0.0106 0.008975 0.012375 0.00535 0.00175 0.01125 -0.0001 0.0146 -0.004625l-0.0105 -0.00775Zm0.00335 0.6597 0.01035 -0.007925c-0.003425 -0.0044 -0.00925 -0.00615 -0.01455 -0.004375 -0.005275 0.001775 -0.00885 0.006725 -0.0089 0.0123h0.0131Zm-0.120825 0.41895c-0.0074 0.0002 -0.014525 -0.002725 -0.01965 -0.00805l-0.0184 0.0184c0.010075 0.010075 0.023825 0.015575 0.03805 0.015225v-0.025575Zm-0.01965 -0.00805c-0.004525 -0.00485 -0.006825 -0.01135 -0.006375 -0.017975h-0.026175c-0.000525 0.01355 0.00455 0.026675 0.014 0.036375l0.01855 -0.0184Zm-0.006375 -0.017975v-1.12615h-0.026175v1.12615h0.026175Zm0 -1.12615c-0.00045 -0.0066 0.00185 -0.0131 0.006375 -0.01795l-0.0184 -0.0184c-0.009475 0.009675 -0.014525 0.022825 -0.014 0.03635h0.026025Zm0.006375 -0.01795c0.005125 -0.005325 0.01225 -0.00825 0.01965 -0.00805v-0.026175c-0.014225 -0.00035 -0.027975 0.00515 -0.03805 0.0152l0.0184 0.019025Zm0.01965 -0.00805h0.07805v-0.026175h-0.07805v0.026175Zm0.07805 0c0.006575 -0.000425 0.01295 0.002275 0.0172 0.0073l0.0198 -0.0169c-0.00925 -0.010825 -0.022925 -0.01685 -0.03715 -0.016425l0.00015 0.026025Zm0.018725 0.008825c0.005025 0.00425 0.007725 0.010625 0.0073 0.017175h0.026025c0.000375 -0.014175 -0.00565 -0.02775 -0.016425 -0.036975l-0.0169 0.0198Zm0.0073 0.017175v0.074575h0.026025v-0.074575h-0.026025Zm0.0236 0.08235c0.062225 -0.084425 0.163 -0.131575 0.267675 -0.12525v-0.026025c-0.1132 -0.00655 -0.222 0.04465 -0.289125 0.13605l0.02145 0.015225Zm0.267675 -0.12525c0.097525 -0.00755 0.192725 0.03205 0.256125 0.106525l0.02055 -0.016125c-0.06825 -0.080925 -0.171075 -0.124375 -0.276675 -0.116875v0.026475Zm0.256125 0.106525c0.061175 0.0808 0.09415 0.179425 0.0939 0.280775l0.026025 -0.001075c0.00005 -0.106925 -0.0349 -0.210925 -0.099525 -0.296125l-0.0204 0.016425Zm0.0939 0.281525c0.001075 0.011875 0.001675 0.03045 0.001675 0.056625h0.026025c0 -0.026025 0 -0.04565 -0.001825 -0.0589l-0.025875 0.002275Zm0.001675 0.056625c0 0.026025 0 0.04475 -0.001675 0.0566l0.025875 0.0023c0.001225 -0.0131 0.001825 -0.032875 0.001825 -0.0589h-0.026025Zm-0.001675 0.057225c-0.0001 0.101325 -0.03305 0.1999 -0.0939 0.280925l0.0204 0.016125c0.064275 -0.085325 0.0992 -0.189175 0.099525 -0.296l-0.026025 -0.00105Zm-0.0939 0.280775c-0.06365 0.0741 -0.158675 0.113625 -0.256125 0.106525v0.026025c0.10545 0.00685 0.207975 -0.036475 0.276525 -0.116875l-0.0204 -0.015675Zm-0.256125 0.106525c-0.1028 0.00515 -0.20165 -0.040325 -0.264625 -0.12175l-0.0207 0.015225c0.0678 0.087975 0.174225 0.137375 0.285175 0.1324l0.00015 -0.025875Zm-0.287925 -0.11415v0.3937h0.026175v-0.3937h-0.026175Zm0 0.3937c0.000475 0.006625 -0.00185 0.013125 -0.006375 0.01795l0.0184 0.018425c0.00945 -0.0097 0.014525 -0.02285 0.014 -0.036375h-0.026025Zm-0.007 0.018725c-0.0043 0.005025 -0.010725 0.00775 -0.01735 0.0073v0.026175c0.01425 0.00045 0.0279 -0.0056 0.03715 -0.016425l-0.0198 -0.01705Zm-0.01735 0.0073h-0.083075v0.026175h0.083075v-0.026175Zm0.276525 -0.416825c0.071275 0.005925 0.1408 -0.0241 0.18535 -0.08005l-0.021 -0.015225c-0.0397 0.0491 -0.101325 0.0751 -0.1642 0.06925l-0.00015 0.026025Zm0.1852 -0.0799c0.041525 -0.05995 0.063775 -0.13115 0.063775 -0.204075l-0.026025 -0.00105c0.00025 0.0677 -0.0202 0.13385 -0.0586 0.1896l0.02085 0.015525Zm0.063625 -0.2033c0.0012 -0.012025 0.001825 -0.028925 0.001825 -0.050525h-0.026175c0 0.0213 0 0.037275 -0.001675 0.047925l0.026025 0.0026Zm0.001825 -0.050525c0.00605 -0.08725 -0.015625 -0.174175 -0.06195 -0.248375 -0.04475 -0.05815 -0.115475 -0.0902 -0.1887 -0.085525v0.026025c0.0648 -0.004575 0.1276 0.023525 0.1674 0.074875 0.042925 0.069725 0.062825 0.151175 0.056925 0.23285l0.026325 0.00015Zm-0.25065 -0.33375c-0.07215 -0.0045 -0.14195 0.0266 -0.186875 0.08325l0.0207 0.015225c0.04 -0.0501 0.10205 -0.07735 0.166025 -0.0729l0.00015 -0.025575Zm-0.186875 0.08325c-0.040875 0.055275 -0.0637 0.1218 -0.06545 0.190525l0.026175 0.001225c0.001675 -0.063575 0.022925 -0.12505 0.060875 -0.176075l-0.0216 -0.015675Zm-0.06545 0.190825 -0.001675 0.064525h0.026025l0.001675 -0.064525h-0.026025Zm-0.001675 0.06515 0.001675 0.0662h0.026175l-0.001675 -0.0662h-0.026175Zm0.001675 0.06635c0.0013 0.066725 0.02505 0.13105 0.067425 0.182625l0.02025 -0.0166c-0.038625 -0.047325 -0.0601 -0.106325 -0.060875 -0.1674l-0.0268 0.001375Zm0.067425 0.182625c0.04575 0.05395 0.114125 0.08335 0.18475 0.079425v-0.026025c-0.062825 0.003925 -0.123825 -0.02195 -0.164675 -0.06985l-0.020075 0.01645Zm1.33145 0.075775h0.013075c-0.000125 -0.005625 -0.00385 -0.01055 -0.009225 -0.012225 -0.0054 -0.00165 -0.01125 0.000325 -0.014525 0.004925l0.010675 0.0073Zm-0.0035 -0.326125h0.013075c0 -0.00385 -0.001675 -0.0075 -0.0046 -0.01 -0.00295 -0.002475 -0.006825 -0.00355 -0.010625 -0.002925l0.00215 0.012925Zm-0.286725 0.441625c-0.05145 0.000475 -0.102325 -0.010725 -0.148825 -0.0327l-0.011275 0.023575c0.05 0.023625 0.104675 0.035625 0.15995 0.03515l0.00015 -0.026025Zm-0.148825 -0.0327c-0.043025 -0.019675 -0.08045 -0.0498 -0.108825 -0.087675l-0.021 0.015225c0.030875 0.041325 0.07165 0.07425 0.11855 0.095725l0.011275 -0.023275Zm-0.108525 -0.087225c-0.025275 -0.0361 -0.038725 -0.079175 -0.0385 -0.12325h-0.026175c-0.000225 0.04935 0.014825 0.09755 0.043075 0.138025l0.0216 -0.014775Zm-0.0385 -0.12325c-0.0011 -0.068325 0.031225 -0.132875 0.0866 -0.172875l-0.015975 -0.02055c-0.061775 0.044975 -0.097825 0.117175 -0.09665 0.193575l0.026025 -0.00015Zm0.0866 -0.173025c0.072075 -0.0518 0.15655 -0.083675 0.24485 -0.092375l-0.00365 -0.025875c-0.092875 0.009325 -0.18165 0.043025 -0.257325 0.0977l0.016125 0.02055Zm0.24485 -0.092375 0.252775 -0.035625 -0.00365 -0.025875 -0.252925 0.035625 0.0038 0.025875Zm0.26405 -0.04855v-0.04915h-0.026025v0.04915h0.026025Zm0 -0.04915c0.00365 -0.05225 -0.01615 -0.1034 -0.054025 -0.139575 -0.04515 -0.03405 -0.1011 -0.0506 -0.1575 -0.04655v0.026175c0.05005 -0.004 0.099875 0.010225 0.1403 0.040025 0.0324 0.031125 0.04915 0.075125 0.04565 0.119925h0.025575Zm-0.211525 -0.186125c-0.045675 -0.00185 -0.090825 0.0102 -0.129525 0.03455l0.015225 0.0216c0.03435 -0.02155 0.0744 -0.03215 0.1149 -0.030425l-0.0006 -0.025725Zm-0.1292 0.0344c-0.03145 0.019125 -0.0576 0.0458 -0.0761 0.0776l0.022825 0.012775c0.016325 -0.02795 0.039325 -0.051425 0.06695 -0.068325l-0.013675 -0.02205Zm-0.0761 0.079725c-0.001625 0.0061 -0.0049 0.011625 -0.00945 0.015975l0.0163 0.0204c0.0085 -0.0075 0.014675 -0.017275 0.0178 -0.02815l-0.02465 -0.008225Zm-0.01035 0.01705c-0.003175 0.002375 -0.007175 0.003425 -0.0111 0.0029v0.026025c0.01085 0.00055 0.0215 -0.003275 0.029525 -0.010675l-0.018425 -0.01825Zm-0.0111 0.0029h-0.07305v0.026025h0.07305v-0.026025Zm-0.07305 0c-0.00685 0.00005 -0.013475 -0.002425 -0.018575 -0.007l-0.01705 0.019775c0.00985 0.008625 0.022525 0.013325 0.035625 0.01325v-0.026025Zm-0.0172 -0.00565c-0.004675 -0.0051 -0.007225 -0.0118 -0.00715 -0.0187h-0.026025c-0.0001 0.013075 0.004625 0.02575 0.013225 0.0356l0.01995 -0.0169Zm-0.00715 -0.0181c0.00355 -0.03095 0.015675 -0.060325 0.035 -0.084775l-0.0213 -0.0152c-0.022325 0.028425 -0.0361 0.062625 -0.039725 0.0986l0.026025 0.001375Zm0.035 -0.0846c0.028525 -0.037275 0.065925 -0.066775 0.1088 -0.08585l-0.0114 -0.023425c-0.0468 0.02095 -0.087625 0.053275 -0.1187 0.09405l0.0213 0.015225Zm0.10895 -0.08585c0.057025 -0.026825 0.119625 -0.039725 0.182625 -0.037575v-0.026025c-0.067075 -0.0021 -0.133675 0.011775 -0.194325 0.040475l0.0117 0.023125Zm0.182625 -0.037575c0.095975 -0.009525 0.19155 0.02155 0.263575 0.085675l0.019175 -0.01765c-0.076925 -0.06955 -0.1795 -0.10365 -0.28275 -0.09405v0.026025Zm0.263725 0.085825c0.0535 0.05725 0.082125 0.133375 0.0796 0.211675h0.026025c0.002475 -0.084925 -0.0287 -0.167425 -0.08675 -0.229475l-0.018875 0.0178Zm0.0796 0.211675v0.54985h0.026025v-0.54985h-0.026025Zm0 0.54985c0.0002 0.007375 -0.002725 0.014525 -0.008075 0.019625l0.018425 0.018425c0.010025 -0.0101 0.015525 -0.023825 0.015225 -0.03805h-0.025575Zm-0.008075 0.019625c-0.004825 0.004525 -0.011325 0.00685 -0.01795 0.0064v0.026025c0.013525 0.000475 0.026675 -0.004575 0.036375 -0.014l-0.018425 -0.018425Zm-0.01795 0.0064h-0.078075v0.026025h0.078075v-0.026025Zm-0.078075 0c-0.007425 0.000225 -0.014675 -0.002275 -0.020375 -0.007l-0.0169 0.019775c0.010375 0.008875 0.023625 0.013625 0.037275 0.0134v-0.026175Zm-0.018875 -0.00565c-0.004875 -0.00565 -0.007425 -0.012925 -0.00715 -0.020375h-0.026025c-0.0003 0.013625 0.004425 0.0269 0.01325 0.037275l0.019925 -0.0169Zm-0.00715 -0.020375v-0.0729h-0.026025v0.0729h0.026025Zm-0.023725 -0.08035c-0.026975 0.037225 -0.062675 0.067275 -0.10395 0.0875l0.012025 0.023125c0.045075 -0.022125 0.084 -0.055 0.113375 -0.095725l-0.02145 -0.0149Zm-0.10395 0.0875c-0.05475 0.0259 -0.11495 0.038225 -0.175475 0.0359v0.026025c0.064775 0.002375 0.12915 -0.01095 0.18765 -0.0388l-0.012175 -0.023125Zm-0.13985 -0.0653c0.070825 0.002525 0.1395 -0.02475 0.1893 -0.075175l-0.0187 -0.01825c-0.0449 0.0454 -0.106825 0.0698 -0.1706 0.06725v0.026175Zm0.1893 -0.075175c0.052975 -0.059725 0.079925 -0.1381 0.074875 -0.217775h-0.026025c0.005025 0.0729 -0.0193 0.1448 -0.06755 0.199675l0.0187 0.0181Zm0.074875 -0.217775v-0.047475h-0.026025v0.047475h0.026025Zm-0.0152 -0.060875 -0.196775 0.028775 0.0038 0.025875 0.196775 -0.028775 -0.0038 -0.025875Zm-0.196775 0.028775c-0.0659 0.00615 -0.12965 0.02655 -0.186875 0.0598l0.01445 0.021775c0.05405 -0.031025 0.11415 -0.049975 0.176225 -0.05555l-0.0038 -0.026025Zm-0.186725 0.05965c-0.0408 0.0222 -0.06645 0.064675 -0.067125 0.1111h0.026175c0.000725 -0.03755 0.021825 -0.07175 0.0551 -0.089175l-0.01415 -0.021925Zm-0.067125 0.1111c-0.001425 0.046875 0.0221 0.091 0.0618 0.11595l0.01445 -0.0216c-0.03245 -0.020175 -0.051625 -0.056175 -0.050225 -0.09435h-0.026025Zm0.0621 0.116275c0.04185 0.0257 0.090275 0.03875 0.1394 0.037575v-0.026025c-0.044125 0.00115 -0.087625 -0.01055 -0.12525 -0.033625l-0.01415 0.022075Zm1.1505 0.13635c-0.1015 0.005975 -0.201075 -0.029375 -0.276075 -0.098l-0.01825 0.01855c0.079775 0.073475 0.185875 0.111575 0.294175 0.105625l0.00015 -0.026175Zm-0.275925 -0.09785c-0.06945 -0.07645 -0.106975 -0.1766 -0.10485 -0.279875l-0.026025 0.000925c-0.001875 0.109725 0.0383 0.216025 0.112325 0.29705l0.01855 -0.0181Zm-0.10485 -0.279725 -0.001675 -0.067875h-0.026025l0.001675 0.067875h0.026025Zm-0.001675 -0.06725 0.001675 -0.067875h-0.026025l-0.001675 0.067875h0.026025Zm0.001675 -0.067725c-0.002325 -0.10275 0.035275 -0.2024 0.10485 -0.27805l-0.01855 -0.0184c-0.074225 0.0803 -0.114475 0.1862 -0.112325 0.295525l0.026025 0.000925Zm0.10485 -0.27805c0.074475 -0.069575 0.174175 -0.1056 0.275925 -0.099675v-0.026025c-0.10865 -0.005925 -0.215 0.032825 -0.294325 0.1073l0.0184 0.0184Zm0.275925 -0.099675c0.0694 -0.00215 0.138325 0.01245 0.200875 0.042625l0.012025 -0.02315c-0.0663 -0.032175 -0.1394 -0.04785 -0.21305 -0.04565l0.00015 0.026175Zm0.200875 0.042625c0.048725 0.023275 0.090325 0.05915 0.120525 0.103925l0.022075 -0.01385c-0.03265 -0.048725 -0.077725 -0.0878 -0.130575 -0.113225l-0.012025 0.02315Zm0.120675 0.104225c0.02515 0.035975 0.040225 0.078 0.043675 0.12175l0.026025 -0.001375c-0.00355 -0.048625 -0.020125 -0.0954 -0.047925 -0.135425l-0.021775 0.01505Zm0.043675 0.123125c0.000875 0.0057 -0.00125 0.01145 -0.005625 0.015225l0.01705 0.019775c0.0113 -0.009325 0.01705 -0.0238 0.0152 -0.03835l-0.026625 0.00335Zm-0.005625 0.015225c-0.005725 0.004725 -0.012975 0.007225 -0.0204 0.007v0.026025c0.0137 0.00025 0.027025 -0.004525 0.03745 -0.0134l-0.01705 -0.019625Zm-0.0204 0.007h-0.0814v0.026025h0.0814v-0.026025Zm-0.0814 0c-0.006075 0.0006 -0.01215 -0.0008 -0.01735 -0.003975l-0.0163 0.0204c0.009775 0.007 0.02165 0.01045 0.03365 0.00975v-0.026175Zm-0.01735 -0.003975c-0.005925 -0.00625 -0.010375 -0.013725 -0.0131 -0.0219l-0.02405 0.01005c0.004275 0.01225 0.011425 0.023325 0.02085 0.03225l0.0163 -0.0204Zm-0.0128 -0.0213c-0.014575 -0.0491 -0.0451 -0.091925 -0.086725 -0.12175l-0.014175 0.021925c0.036775 0.0268 0.06355 0.065075 0.0761 0.1088l0.0248 -0.008975Zm-0.086425 -0.12175c-0.04165 -0.0265 -0.090375 -0.0397 -0.1397 -0.037875v0.026025c0.0441 -0.0018 0.0877 0.009825 0.125075 0.033325l0.014625 -0.021475Zm-0.1397 -0.037875c-0.066475 -0.0029 -0.131025 0.022675 -0.17745 0.0703l0.018875 0.01795c0.041525 -0.042425 0.09925 -0.065025 0.158575 -0.062075v-0.026175Zm-0.17745 0.0703c-0.047575 0.05825 -0.07235 0.1318 -0.0697 0.206975l0.026025 0.0009c-0.002825 -0.068825 0.0194 -0.13635 0.06255 -0.190075l-0.018875 -0.0178Zm-0.0697 0.207125 -0.001675 0.060875h0.026025l0.001675 -0.060875h-0.026025Zm-0.001675 0.061775 0.001675 0.057675 0.026025 -0.00075 -0.001675 -0.057675 -0.026025 0.00075Zm0.001675 0.057825c-0.00285 0.0757 0.021925 0.14985 0.0697 0.20865l0.018875 -0.01795c-0.043325 -0.054275 -0.06555 -0.122375 -0.06255 -0.19175l-0.026025 0.00105Zm0.0697 0.20865c0.0467 0.04705 0.111225 0.072 0.17745 0.068625v-0.026175c-0.059125 0.003275 -0.11685 -0.018875 -0.158575 -0.06085l-0.018875 0.0184Zm0.17745 0.068625c0.048975 0.00175 0.0974 -0.010775 0.1394 -0.03605l-0.014175 -0.021925c-0.037775 0.022525 -0.081275 0.033575 -0.125225 0.0318v0.026175Zm0.1397 -0.0362c0.04135 -0.030825 0.07165 -0.074175 0.086425 -0.123575l-0.02465 -0.008675c-0.01285 0.044075 -0.039525 0.08285 -0.076075 0.110625l0.0143 0.021625Zm0.086125 -0.122825c0.002725 -0.00815 0.0072 -0.01565 0.0131 -0.0219l-0.0163 -0.0204c-0.00945 0.008975 -0.0166 0.0201 -0.02085 0.032425l0.02405 0.009875Zm0.01415 -0.022975c0.004575 -0.0037 0.01045 -0.0054 0.0163 -0.004725v-0.026025c-0.012775 -0.00075 -0.0253 0.0037 -0.0347 0.01235l0.0184 0.0184Zm0.0163 -0.004725h0.0814v-0.026025h-0.0814v0.026025Zm0.0814 0c0.0074 -0.000175 0.014525 0.00275 0.01965 0.008075l0.0184 -0.018425c-0.010075 -0.010025 -0.023825 -0.015525 -0.03805 -0.0152v0.02555Zm0.0204 0.008675c0.004375 0.003775 0.0065 0.009525 0.005625 0.015225l0.025875 0.0026c0.00185 -0.01455 -0.0039 -0.029025 -0.015225 -0.03835l-0.016275 0.020525Zm0.005625 0.0166c-0.00365 0.044 -0.018775 0.0863 -0.043825 0.12265l0.021925 0.014c0.02745 -0.04015 0.043975 -0.086775 0.047925 -0.135275l-0.026025 -0.001375Zm-0.043825 0.12265c-0.030175 0.044775 -0.0718 0.080675 -0.120525 0.10395l0.012025 0.023125c0.052825 -0.025425 0.0979 -0.064525 0.130575 -0.113225l-0.022075 -0.01385Zm-0.120675 0.1041c-0.0625 0.030375 -0.13145 0.045 -0.200875 0.0426v0.026025c0.073675 0.00245 0.146825 -0.013225 0.21305 -0.04565l-0.012175 -0.022975Zm0.5436 -0.73185h-0.01295c0.000075 0.005525 0.003575 0.010425 0.0088 0.012225 0.005225 0.001825 0.011025 0.00015 0.0145 -0.00415l-0.01035 -0.008075Zm-0.123725 0.757875c-0.007425 0.000225 -0.014675 -0.00225 -0.0204 -0.007l-0.01705 0.019775c0.010375 0.008875 0.02365 0.01365 0.0373 0.0134l0.00015 -0.026175Zm-0.018875 -0.005625c-0.00475 -0.005725 -0.00725 -0.012975 -0.007 -0.0204h-0.026175c-0.0003 0.013625 0.004425 0.026875 0.013225 0.037275l0.01995 -0.016875Zm-0.007 -0.0204v-1.12615h-0.026175v1.12615h0.026175Zm0 -1.12615c-0.000475 -0.006625 0.00185 -0.013125 0.006375 -0.01795l-0.0184 -0.018425c-0.009425 0.0097 -0.0145 0.02285 -0.014 0.036375h0.026025Zm0.006375 -0.01795c0.005125 -0.00535 0.01225 -0.008275 0.01965 -0.008075v-0.026025c-0.014225 -0.000325 -0.027975 0.005175 -0.03805 0.015225l0.0184 0.018875Zm0.01965 -0.008075h0.08475v-0.026025h-0.08475v0.026025Zm0.08475 0c0.006575 -0.0004 0.01295 0.0023 0.0172 0.0073l0.0198 -0.01705c-0.00925 -0.010825 -0.0229 -0.016875 -0.03715 -0.016425l0.00015 0.026175Zm0.018575 0.008675c0.005 0.00425 0.007725 0.010625 0.0073 0.0172h0.026175c0.000375 -0.014175 -0.00565 -0.027775 -0.016425 -0.036975l-0.01705 0.019775Zm0.0073 0.0172v0.395675h0.026175v-0.395675h-0.026175Zm0.0233 0.403425c0.029425 -0.038525 0.067325 -0.069775 0.110775 -0.0913l-0.0114 -0.02345c-0.047025 0.0233 -0.08805 0.0571 -0.119925 0.098775l0.02055 0.015975Zm0.111075 -0.0913c0.0496 -0.023275 0.104 -0.03445 0.158725 -0.032575v-0.026025c-0.05885 -0.001925 -0.117325 0.010175 -0.1706 0.035325l0.011875 0.023275Zm0.158725 -0.032575c0.0923 -0.00555 0.18205 0.031525 0.2435 0.1006l0.019775 -0.01705c-0.066275 -0.07475 -0.16305 -0.11515 -0.2628 -0.109725l-0.000475 0.026175Zm0.2435 0.1009c0.061975 0.075125 0.093525 0.17075 0.088425 0.268h0.026025c0.005075 -0.1036 -0.0288 -0.205325 -0.094975 -0.2852l-0.019475 0.0172Zm0.088425 0.268v0.47845h0.026025v-0.47845h-0.026025Zm0 0.47845c0.000175 0.0074 -0.00275 0.014525 -0.008075 0.01965l0.018425 0.0184c0.01 -0.0101 0.0155 -0.023825 0.0152 -0.03805h-0.02555Zm-0.008075 0.01965c-0.004825 0.004525 -0.01135 0.00685 -0.01795 0.006375v0.026025c0.013525 0.000475 0.02665 -0.004575 0.036375 -0.014l-0.018425 -0.0184Zm-0.01795 0.006375h-0.084775v0.026025h0.084775v-0.026025Zm-0.084775 0c-0.007425 0.00025 -0.014675 -0.00225 -0.0204 -0.007l-0.017025 0.0198c0.010375 0.00885 0.023625 0.013625 0.037275 0.013375l0.00015 -0.026175Zm-0.018875 -0.005625c-0.004725 -0.005725 -0.007225 -0.012975 -0.007 -0.0204h-0.026175c-0.000275 0.013625 0.00445 0.0269 0.01325 0.0373l0.019925 -0.0169Zm-0.007 -0.0204v-0.4704h-0.026175v0.46995l0.026175 0.00045Zm0 -0.469925c0.0043 -0.0707 -0.018075 -0.140425 -0.0627 -0.1954l-0.019475 0.01735c0.040275 0.0502 0.06025 0.113675 0.056 0.1779l0.026175 0.00015Zm-0.06255 -0.19525c-0.045725 -0.048975 -0.111 -0.0749 -0.1779 -0.070625v0.026025c0.059325 -0.0042 0.117375 0.018475 0.158125 0.0618l0.019775 -0.0172Zm-0.1779 -0.070625c-0.06775 -0.002825 -0.1335 0.02335 -0.180775 0.072l0.018875 0.01795c0.042425 -0.04335 0.101325 -0.066525 0.1619 -0.063775v-0.026175Zm-0.180775 0.072c-0.0467 0.053475 -0.07055 0.12315 -0.06635 0.194025h0.026175c-0.004125 -0.06415 0.017125 -0.127325 0.0592 -0.175925l-0.019025 -0.0181Zm-0.06635 0.194025v0.469925h0.026175v-0.47055l-0.026175 0.000625Zm0 0.469925c0.0002 0.0074 -0.002725 0.014525 -0.008075 0.01965l0.018425 0.0184c0.010025 -0.010075 0.015525 -0.023825 0.0152 -0.03805h-0.02555Zm-0.008075 0.01965c-0.004825 0.004525 -0.01135 0.00685 -0.01795 0.006375v0.026025c0.013525 0.000475 0.02665 -0.004575 0.036375 -0.014l-0.018425 -0.0184Zm-0.01795 0.006375h-0.084775v0.026025h0.084775V10.43Zm1.260975 0.0169c-0.10065 0.0048 -0.19875 -0.032525 -0.270725 -0.103025l-0.018575 0.01825c0.076825 0.07545 0.181575 0.115575 0.28915 0.1108l0.00015 -0.026025Zm-0.270575 -0.102875c-0.070425 -0.079075 -0.1096 -0.181125 -0.110175 -0.287025l-0.026025 0.001375c0.00085 0.1121 0.042575 0.22005 0.117325 0.3036l0.018875 -0.01795Zm-0.110025 -0.2867 -0.001675 -0.0577h-0.026025l0.001675 0.0577h0.026025Zm-0.001675 -0.056925 0.001675 -0.056 -0.026175 -0.000775 -0.001675 0.056 0.026175 0.000775Zm0.001675 -0.05555c0.002 -0.104925 0.0417 -0.2056 0.11185 -0.283675l-0.018875 -0.01795c-0.07435 0.082475 -0.1166 0.188925 -0.119 0.29995l0.026025 0.001675Zm0.1117 -0.283675c0.070375 -0.070925 0.1674 -0.108875 0.267225 -0.10455v-0.026025c-0.1069 -0.004325 -0.2107 0.03655 -0.28595 0.112625l0.018725 0.01795Zm0.267225 -0.10455c0.10675 -0.0063 0.21055 0.036375 0.282 0.115975l0.019775 -0.01705c-0.0764 -0.085325 -0.187425 -0.1313 -0.301775 -0.12495v0.026025Zm0.28215 0.115975c0.070925 0.088675 0.106625 0.200425 0.100275 0.3138h0.026175c0.00645 -0.119675 -0.0315 -0.237525 -0.106525 -0.331l-0.019925 0.0172Zm0.100275 0.3138v0.0289h0.026175v-0.0289h-0.026175Zm0 0.0289c0.000225 0.0074 -0.002725 0.014525 -0.00805 0.01965l0.0184 0.0184c0.010025 -0.0101 0.015525 -0.023825 0.015225 -0.03805h-0.025575Zm-0.00805 0.01965c-0.00485 0.00455 -0.01135 0.00685 -0.017975 0.006375v0.026025c0.013525 0.000475 0.026675 -0.004575 0.036375 -0.014l-0.0184 -0.0184Zm-0.017975 0.006375h-0.5871v0.026025h0.5871v-0.026025Zm-0.6002 0.0131v0.015225h0.026175v-0.015225h-0.026175Zm0 0.015225c0.00165 0.070925 0.025775 0.139525 0.06895 0.19585l0.020525 -0.016125c-0.039825 -0.05205 -0.06205 -0.115425 -0.06345 -0.18095l-0.026025 0.001225Zm0.0691 0.196c0.042275 0.052975 0.10695 0.083 0.1747 0.081125v-0.026025c-0.0599 0.001875 -0.11715 -0.02465 -0.154475 -0.071525l-0.020225 0.016425Zm0.1747 0.081125c0.0469 0.001925 0.093425 -0.009375 0.134225 -0.032575l-0.0137 -0.022225c-0.036675 0.020575 -0.078375 0.0305 -0.120375 0.028625l-0.00015 0.026175Zm0.134225 -0.032575c0.030425 -0.0179 0.05705 -0.041575 0.078375 -0.0697l-0.0213 -0.015225c-0.01935 0.0253 -0.04345 0.0466 -0.070925 0.0627l0.01385 0.022225Zm0.078075 -0.0694c0.00385 -0.005275 0.00795 -0.01035 0.012325 -0.015225 0.001225 -0.00135 0.00255 -0.002625 0.00395 -0.0038l0.001225 -0.0009 -0.011725 -0.0233c-0.00475 0.002725 -0.009025 0.006225 -0.012625 0.01035 -0.00495 0.005525 -0.0096 0.01125 -0.014 0.0172l0.02085 0.015675Zm0.01825 -0.0204c0.007075 -0.002725 0.014675 -0.003825 0.022225 -0.003175v-0.026025c-0.012275 -0.0008 -0.02455 0.001625 -0.0356 0.007l0.013375 0.0222Zm0.022225 -0.003175h0.08325v-0.026025h-0.08325v0.026025Zm0.08325 0c0.00615 -0.000325 0.012225 0.001625 0.01705 0.005475l0.016725 -0.0201c-0.0095 -0.007775 -0.0215 -0.011875 -0.033775 -0.01155v0.026175Zm0.01705 0.005475c0.0039 0.003425 0.005925 0.0085 0.005475 0.0137h0.026025c0.0004 -0.013025 -0.005225 -0.0255 -0.015225 -0.0338l-0.016275 0.0201Zm0.005475 0.0137c-0.0049 0.0314 -0.02055 0.060125 -0.0443 0.08125l0.019475 0.0175c0.028175 -0.025825 0.0462 -0.06085 0.05085 -0.09875h-0.026025Zm-0.0443 0.0814c-0.0354 0.03805 -0.078425 0.0682 -0.1263 0.088425l0.01095 0.02375c0.051225 -0.0218 0.097275 -0.054175 0.13515 -0.094975l-0.0198 -0.0172Zm-0.12615 0.088275c-0.058825 0.02515 -0.122325 0.037475 -0.186275 0.036225v0.026025c0.067675 0.0013 0.134875 -0.011825 0.197075 -0.038525l-0.0108 -0.023725Zm0.0592 -0.47345v-0.005025h-0.026025v0.005025h0.026025Zm0 -0.005025c0.003125 -0.072375 -0.02105 -0.143325 -0.067725 -0.19875l-0.019625 0.01735c0.0423 0.0507 0.064025 0.11545 0.060875 0.1814h0.026475Zm-0.067575 -0.197825c-0.044425 -0.0528 -0.110775 -0.082075 -0.179725 -0.0793v0.026175c0.061175 -0.002625 0.120125 0.023225 0.15965 0.070025l0.020075 -0.0169Zm-0.179725 -0.0793c-0.0689 -0.002725 -0.135175 0.02655 -0.179575 0.0793l0.019925 0.01675c0.039525 -0.0468 0.098475 -0.07265 0.15965 -0.070025v-0.026025Zm-0.179725 0.0793c-0.0444 0.056125 -0.067175 0.126325 -0.064225 0.197825h0.026175c-0.0031 -0.065575 0.01755 -0.1301 0.058125 -0.1817l-0.020075 -0.016125Zm-0.064225 0.197825v0.005025h0.026175v-0.005025h-0.026175Zm0.0131 0.018125h0.4649v-0.026025h-0.4649v0.026025Z" stroke-width="0.25"></path>
  <path fill="#51504f" d="M10.051325 14.4284c-0.047175 -0.001125 -0.085175 -0.0391 -0.0863 -0.086275 -0.00075 -0.01595 0.0007 -0.031925 0.004275 -0.047475l1.069225 -2.7892c0.018175 -0.059925 0.075425 -0.0993 0.137875 -0.094825h0.2931c0.0625 -0.004475 0.1198 0.034875 0.13805 0.094825l1.065275 2.7892 0.008675 0.047475c-0.001275 0.0471 -0.039175 0.085 -0.0863 0.086275h-0.2199c-0.026225 0.00165 -0.0522 -0.006 -0.07335 -0.0216 -0.015275 -0.014375 -0.02705 -0.0321 -0.0344 -0.05175l-0.2371 -0.612225h-1.414075l-0.2371 0.612225c-0.008025 0.020425 -0.02145 0.038325 -0.0388 0.05175 -0.0197 0.01515 -0.044125 0.0228 -0.06895 0.0216h-0.2202Zm1.853725 -1.056125 -0.58195 -1.53035 -0.581775 1.530175 1.163725 0.000175Zm1.245475 -1.6037c-0.0271 0.0029 -0.054025 -0.006575 -0.0733 -0.025825 -0.019275 -0.01925 -0.0288 -0.046175 -0.025925 -0.07325v-0.23285c-0.000725 -0.0268 0.008475 -0.052925 0.02585 -0.07335 0.0192 -0.01985 0.04575 -0.030875 0.073375 -0.030425h0.271625c0.0275 -0.000125 0.053875 0.010725 0.073325 0.030175 0.019425 0.019425 0.0303 0.045825 0.030175 0.0733v0.23285c0.0004 0.02755 -0.010625 0.05405 -0.03045 0.0732 -0.020375 0.01735 -0.04645 0.026575 -0.0732 0.025875l-0.271475 0.0003Zm0.034525 2.659975c-0.027075 0.002875 -0.054025 -0.00665 -0.073275 -0.025925 -0.019275 -0.01925 -0.0288 -0.0462 -0.02595 -0.0733v-2.0435c-0.001225 -0.02555 0.00815 -0.0505 0.025875 -0.068925 0.0192 -0.01985 0.04575 -0.030875 0.07335 -0.03045h0.206825c0.05385 0.0021 0.09705 0.045225 0.099225 0.099075v2.04335c0.00045 0.027625 -0.010575 0.054175 -0.03045 0.07335 -0.01845 0.017725 -0.043375 0.027075 -0.068925 0.025875l-0.206675 0.00045Zm1.044125 0c-0.027075 0.002875 -0.054 -0.00665 -0.07325 -0.025925 -0.019225 -0.019275 -0.028725 -0.0462 -0.025825 -0.0733v-2.039225c-0.00065 -0.02675 0.00855 -0.052825 0.025875 -0.0732 0.0192 -0.01985 0.04575 -0.030875 0.07335 -0.03045h0.19785c0.027475 -0.0001 0.053875 0.01075 0.0733 0.030175 0.019425 0.01945 0.0303 0.045825 0.030175 0.073325v0.189625c0.130925 -0.20245 0.3635 -0.3154 0.60355 -0.293125h0.1674c0.0538 0.002175 0.0969 0.0453 0.099075 0.099075v0.1767c0.000975 0.026425 -0.01025 0.05185 -0.030425 0.068925 -0.01845 0.017725 -0.0434 0.027075 -0.06895 0.025875h-0.2587c-0.1361 -0.0073 -0.269 0.042775 -0.36645 0.138025 -0.092875 0.0987 -0.141225 0.23115 -0.133775 0.36645v1.267375c0.000425 0.027625 -0.0106 0.054175 -0.03045 0.07335 -0.020425 0.01735 -0.04655 0.026575 -0.07335 0.025875l-0.2094 0.00045Zm1.8618 0c-0.027075 0.002825 -0.05395 -0.006725 -0.073175 -0.026 -0.019225 -0.01925 -0.02875 -0.04615 -0.0259 -0.073225v-1.797875h-0.36645c-0.02705 0.002875 -0.05395 -0.00665 -0.073175 -0.025875 -0.01925 -0.01925 -0.02875 -0.046125 -0.0259 -0.0732v-0.14655c-0.001225 -0.02555 0.008125 -0.0505 0.025875 -0.068925 0.019125 -0.01985 0.04565 -0.030875 0.0732 -0.03045h0.36645v-0.215625c0 -0.488625 0.24715 -0.732875 0.741425 -0.732775h0.241375c0.05385 0.0021 0.09705 0.04525 0.099225 0.099075v0.14655c0.0004 0.027575 -0.010625 0.05405 -0.03045 0.0732 -0.01845 0.017725 -0.043375 0.027075 -0.068925 0.025875h-0.2327c-0.1019 -0.01105 -0.202925 0.027425 -0.271625 0.1035 -0.05865 0.090775 -0.0859 0.198275 -0.077625 0.306025v0.194025h0.922525v-0.848875c-0.0012 -0.02555 0.008175 -0.050475 0.025875 -0.068925 0.0192 -0.01985 0.04575 -0.030875 0.07335 -0.03045h0.19785c0.053825 0.0021 0.097025 0.04525 0.099225 0.099075v2.99175c0.00045 0.027625 -0.010575 0.054175 -0.03045 0.07335 -0.0185 0.01775 -0.043475 0.027125 -0.0691 0.025875h-0.197825c-0.0271 0.002925 -0.054075 -0.0066 -0.07335 -0.025875s-0.0288 -0.04625 -0.025875 -0.07335v-1.797425h-0.922525v1.797725c0.000425 0.027625 -0.0106 0.05415 -0.03045 0.07335 -0.0185 0.01775 -0.043475 0.0271 -0.069075 0.025875l-0.2018 0.00015Zm3.1806 0.043075c-0.2721 0.016475 -0.5389 -0.0803 -0.737175 -0.267375 -0.1787 -0.193625 -0.2773 -0.447825 -0.2759 -0.7113l-0.0044 -0.185375 0.0044 -0.18535c-0.000775 -0.2629 0.099525 -0.516025 0.280175 -0.707025 0.42145 -0.36215 1.044225 -0.36215 1.465675 0 0.180575 0.191025 0.280875 0.44415 0.28015 0.707025 0.00285 0.03155 0.004275 0.09335 0.004275 0.18535 0 0.092025 -0.001425 0.153825 -0.004275 0.185375 0.001275 0.26425 -0.099025 0.518875 -0.28015 0.7113 -0.196475 0.1876 -0.462425 0.2845 -0.733525 0.267225l0.00075 0.00015Zm0 -0.3319c0.160525 0.00815 0.31645 -0.05495 0.426125 -0.172425 0.115275 -0.139125 0.1765 -0.315175 0.172425 -0.495825 0.002825 -0.0287 0.00425 -0.083275 0.00425 -0.163725 0 -0.080475 -0.001425 -0.13505 -0.00425 -0.16375 0.004075 -0.18065 -0.05715 -0.3567 -0.172425 -0.495825 -0.109675 -0.117475 -0.2656 -0.180575 -0.426125 -0.172425 -0.1619 -0.0078 -0.319225 0.055125 -0.431125 0.172425 -0.114725 0.13915 -0.1743 0.3156 -0.1674 0.495825l-0.00425 0.16375 0.00425 0.163725c-0.0069 0.180225 0.052675 0.356675 0.1674 0.495825 0.11175 0.117025 0.268725 0.179875 0.430375 0.172275l0.00075 0.00015Zm2.093275 0.28915c-0.0309 0.002 -0.061475 -0.007175 -0.086125 -0.025875 -0.023675 -0.022675 -0.041425 -0.050775 -0.05175 -0.081875l-0.612225 -2.0003 -0.008525 -0.04305c-0.0007 -0.024225 0.008675 -0.047625 0.025875 -0.064675 0.017625 -0.0163 0.04065 -0.0255 0.064675 -0.025875h0.189625c0.02555 -0.001225 0.050475 0.00815 0.068925 0.025875 0.017675 0.011275 0.031275 0.027925 0.0388 0.047475l0.478625 1.62515 0.513 -1.60795c0.006125 -0.023925 0.019725 -0.04525 0.0388 -0.060875 0.02195 -0.020975 0.051575 -0.031975 0.081875 -0.03045h0.14655c0.030375 -0.001525 0.060025 0.009475 0.082025 0.03045 0.0191 0.015625 0.0327 0.03695 0.038825 0.060875l0.513 1.60795 0.47845 -1.62515c0.005375 -0.018425 0.01595 -0.034925 0.03045 -0.047475 0.020425 -0.017375 0.04655 -0.0266 0.07335 -0.025875h0.194025c0.023025 -0.00025 0.045075 0.009125 0.060875 0.025875 0.0172 0.01705 0.02655 0.040475 0.025875 0.064675l-0.008675 0.04305 -0.607825 2.0003c-0.010325 0.0311 -0.028075 0.0592 -0.051725 0.081875 -0.0264 0.019225 -0.058775 0.0284 -0.091325 0.025875h-0.1674c-0.06835 0.007 -0.1305 -0.04005 -0.142275 -0.10775l-0.500075 -1.543275 -0.500075 1.543275c-0.01615 0.066775 -0.078 0.11225 -0.14655 0.10775h-0.169075Z" stroke-width="0.25"></path>
</svg>